<mxfile host="app.diagrams.net" modified="2024-05-05T13:26:07.057Z" agent="Mozilla/5.0 (Windows NT 10.0; Win64; x64; rv:125.0) Gecko/20100101 Firefox/125.0" etag="Hbg94o-uXS6oRDI0Hpzt" version="24.3.1" type="device">
  <diagram name="Pagina-1" id="B301QeatODutJ-bav4rF">
    <mxGraphModel dx="2541" dy="2127" grid="1" gridSize="10" guides="1" tooltips="1" connect="1" arrows="1" fold="1" page="1" pageScale="1" pageWidth="827" pageHeight="1169" math="0" shadow="0">
      <root>
        <mxCell id="0" />
        <mxCell id="1" parent="0" />
        <mxCell id="qwlqoothlWGYay0OzHZp-24" style="edgeStyle=orthogonalEdgeStyle;rounded=0;orthogonalLoop=1;jettySize=auto;html=1;" parent="1" source="qwlqoothlWGYay0OzHZp-1" target="qwlqoothlWGYay0OzHZp-7" edge="1">
          <mxGeometry relative="1" as="geometry">
            <Array as="points">
              <mxPoint x="590" y="-270" />
            </Array>
          </mxGeometry>
        </mxCell>
        <mxCell id="b3RHVqqAT-xLDUqazq1x-2" style="edgeStyle=orthogonalEdgeStyle;rounded=0;orthogonalLoop=1;jettySize=auto;html=1;entryX=0.5;entryY=0;entryDx=0;entryDy=0;" edge="1" parent="1" source="qwlqoothlWGYay0OzHZp-1" target="qwlqoothlWGYay0OzHZp-11">
          <mxGeometry relative="1" as="geometry" />
        </mxCell>
        <mxCell id="b3RHVqqAT-xLDUqazq1x-9" style="edgeStyle=orthogonalEdgeStyle;rounded=0;orthogonalLoop=1;jettySize=auto;html=1;entryX=0.5;entryY=0;entryDx=0;entryDy=0;" edge="1" parent="1" source="qwlqoothlWGYay0OzHZp-1" target="qwlqoothlWGYay0OzHZp-3">
          <mxGeometry relative="1" as="geometry" />
        </mxCell>
        <mxCell id="qwlqoothlWGYay0OzHZp-1" value="Home" style="rounded=0;whiteSpace=wrap;html=1;" parent="1" vertex="1">
          <mxGeometry x="240" y="-300" width="120" height="60" as="geometry" />
        </mxCell>
        <mxCell id="qwlqoothlWGYay0OzHZp-46" style="edgeStyle=orthogonalEdgeStyle;rounded=0;orthogonalLoop=1;jettySize=auto;html=1;entryX=0.5;entryY=1;entryDx=0;entryDy=0;" parent="1" source="qwlqoothlWGYay0OzHZp-3" target="qwlqoothlWGYay0OzHZp-5" edge="1">
          <mxGeometry relative="1" as="geometry">
            <Array as="points">
              <mxPoint x="-230" y="-170" />
              <mxPoint x="-480" y="-170" />
              <mxPoint x="-480" y="680" />
              <mxPoint x="420" y="680" />
            </Array>
          </mxGeometry>
        </mxCell>
        <mxCell id="b3RHVqqAT-xLDUqazq1x-6" style="edgeStyle=orthogonalEdgeStyle;rounded=0;orthogonalLoop=1;jettySize=auto;html=1;entryX=0.5;entryY=0;entryDx=0;entryDy=0;" edge="1" parent="1" source="qwlqoothlWGYay0OzHZp-3" target="qwlqoothlWGYay0OzHZp-14">
          <mxGeometry relative="1" as="geometry">
            <Array as="points">
              <mxPoint x="-340" y="-60" />
            </Array>
          </mxGeometry>
        </mxCell>
        <mxCell id="b3RHVqqAT-xLDUqazq1x-10" style="edgeStyle=orthogonalEdgeStyle;rounded=0;orthogonalLoop=1;jettySize=auto;html=1;entryX=0;entryY=0.5;entryDx=0;entryDy=0;" edge="1" parent="1" source="qwlqoothlWGYay0OzHZp-3" target="qwlqoothlWGYay0OzHZp-6">
          <mxGeometry relative="1" as="geometry">
            <Array as="points">
              <mxPoint x="-430" y="-80" />
              <mxPoint x="-430" y="430" />
            </Array>
          </mxGeometry>
        </mxCell>
        <mxCell id="qwlqoothlWGYay0OzHZp-3" value="Campioni" style="rounded=0;whiteSpace=wrap;html=1;" parent="1" vertex="1">
          <mxGeometry x="-260" y="-110" width="120" height="60" as="geometry" />
        </mxCell>
        <mxCell id="qwlqoothlWGYay0OzHZp-4" value="Abilità" style="rounded=0;whiteSpace=wrap;html=1;" parent="1" vertex="1">
          <mxGeometry x="-230" y="140" width="120" height="60" as="geometry" />
        </mxCell>
        <mxCell id="qwlqoothlWGYay0OzHZp-5" value="Statistiche" style="rounded=0;whiteSpace=wrap;html=1;" parent="1" vertex="1">
          <mxGeometry x="360" y="570" width="120" height="60" as="geometry" />
        </mxCell>
        <mxCell id="qwlqoothlWGYay0OzHZp-45" style="edgeStyle=orthogonalEdgeStyle;rounded=0;orthogonalLoop=1;jettySize=auto;html=1;entryX=0.5;entryY=0;entryDx=0;entryDy=0;" parent="1" source="qwlqoothlWGYay0OzHZp-6" target="qwlqoothlWGYay0OzHZp-9" edge="1">
          <mxGeometry relative="1" as="geometry" />
        </mxCell>
        <mxCell id="qwlqoothlWGYay0OzHZp-6" value="RunePage" style="rounded=0;whiteSpace=wrap;html=1;" parent="1" vertex="1">
          <mxGeometry x="170" y="400" width="120" height="60" as="geometry" />
        </mxCell>
        <mxCell id="qwlqoothlWGYay0OzHZp-40" style="edgeStyle=orthogonalEdgeStyle;rounded=0;orthogonalLoop=1;jettySize=auto;html=1;" parent="1" source="qwlqoothlWGYay0OzHZp-7" target="qwlqoothlWGYay0OzHZp-15" edge="1">
          <mxGeometry relative="1" as="geometry" />
        </mxCell>
        <mxCell id="b3RHVqqAT-xLDUqazq1x-1" style="edgeStyle=orthogonalEdgeStyle;rounded=0;orthogonalLoop=1;jettySize=auto;html=1;entryX=1;entryY=0.5;entryDx=0;entryDy=0;" edge="1" parent="1" source="qwlqoothlWGYay0OzHZp-7" target="qwlqoothlWGYay0OzHZp-11">
          <mxGeometry relative="1" as="geometry" />
        </mxCell>
        <mxCell id="qwlqoothlWGYay0OzHZp-7" value="Match" style="rounded=0;whiteSpace=wrap;html=1;" parent="1" vertex="1">
          <mxGeometry x="530" y="-110" width="120" height="60" as="geometry" />
        </mxCell>
        <mxCell id="qwlqoothlWGYay0OzHZp-9" value="Rune" style="rounded=0;whiteSpace=wrap;html=1;" parent="1" vertex="1">
          <mxGeometry x="170" y="570" width="120" height="60" as="geometry" />
        </mxCell>
        <mxCell id="qwlqoothlWGYay0OzHZp-28" style="edgeStyle=orthogonalEdgeStyle;rounded=0;orthogonalLoop=1;jettySize=auto;html=1;" parent="1" source="qwlqoothlWGYay0OzHZp-11" target="qwlqoothlWGYay0OzHZp-22" edge="1">
          <mxGeometry relative="1" as="geometry" />
        </mxCell>
        <mxCell id="qwlqoothlWGYay0OzHZp-58" style="edgeStyle=orthogonalEdgeStyle;rounded=0;orthogonalLoop=1;jettySize=auto;html=1;" parent="1" source="qwlqoothlWGYay0OzHZp-11" target="qwlqoothlWGYay0OzHZp-51" edge="1">
          <mxGeometry relative="1" as="geometry">
            <Array as="points">
              <mxPoint x="50" y="-60" />
            </Array>
          </mxGeometry>
        </mxCell>
        <mxCell id="qwlqoothlWGYay0OzHZp-11" value="Player" style="rounded=0;whiteSpace=wrap;html=1;" parent="1" vertex="1">
          <mxGeometry x="240" y="-110" width="120" height="60" as="geometry" />
        </mxCell>
        <mxCell id="qwlqoothlWGYay0OzHZp-13" value="SummonerSpell" style="rounded=0;whiteSpace=wrap;html=1;" parent="1" vertex="1">
          <mxGeometry x="520" y="400" width="120" height="60" as="geometry" />
        </mxCell>
        <mxCell id="qwlqoothlWGYay0OzHZp-14" value="Classe" style="rounded=0;whiteSpace=wrap;html=1;" parent="1" vertex="1">
          <mxGeometry x="-400" y="140" width="120" height="60" as="geometry" />
        </mxCell>
        <mxCell id="qwlqoothlWGYay0OzHZp-15" value="Modalità" style="rounded=0;whiteSpace=wrap;html=1;" parent="1" vertex="1">
          <mxGeometry x="670" y="150" width="120" height="60" as="geometry" />
        </mxCell>
        <mxCell id="qwlqoothlWGYay0OzHZp-35" style="edgeStyle=orthogonalEdgeStyle;rounded=0;orthogonalLoop=1;jettySize=auto;html=1;" parent="1" source="qwlqoothlWGYay0OzHZp-22" target="qwlqoothlWGYay0OzHZp-13" edge="1">
          <mxGeometry relative="1" as="geometry" />
        </mxCell>
        <mxCell id="qwlqoothlWGYay0OzHZp-41" style="edgeStyle=orthogonalEdgeStyle;rounded=0;orthogonalLoop=1;jettySize=auto;html=1;entryX=0.75;entryY=0;entryDx=0;entryDy=0;" parent="1" source="qwlqoothlWGYay0OzHZp-22" target="qwlqoothlWGYay0OzHZp-6" edge="1">
          <mxGeometry relative="1" as="geometry">
            <Array as="points">
              <mxPoint x="260" y="200" />
            </Array>
          </mxGeometry>
        </mxCell>
        <mxCell id="qwlqoothlWGYay0OzHZp-43" style="edgeStyle=orthogonalEdgeStyle;rounded=0;orthogonalLoop=1;jettySize=auto;html=1;" parent="1" source="qwlqoothlWGYay0OzHZp-22" target="qwlqoothlWGYay0OzHZp-29" edge="1">
          <mxGeometry relative="1" as="geometry" />
        </mxCell>
        <mxCell id="qwlqoothlWGYay0OzHZp-56" style="edgeStyle=orthogonalEdgeStyle;rounded=0;orthogonalLoop=1;jettySize=auto;html=1;entryX=1;entryY=0.25;entryDx=0;entryDy=0;" parent="1" source="qwlqoothlWGYay0OzHZp-22" target="qwlqoothlWGYay0OzHZp-3" edge="1">
          <mxGeometry relative="1" as="geometry" />
        </mxCell>
        <mxCell id="qwlqoothlWGYay0OzHZp-22" value="Loadout" style="rounded=0;whiteSpace=wrap;html=1;" parent="1" vertex="1">
          <mxGeometry x="360" y="150" width="120" height="60" as="geometry" />
        </mxCell>
        <mxCell id="qwlqoothlWGYay0OzHZp-37" style="edgeStyle=orthogonalEdgeStyle;rounded=0;orthogonalLoop=1;jettySize=auto;html=1;" parent="1" source="qwlqoothlWGYay0OzHZp-29" target="qwlqoothlWGYay0OzHZp-5" edge="1">
          <mxGeometry relative="1" as="geometry" />
        </mxCell>
        <mxCell id="qwlqoothlWGYay0OzHZp-29" value="Oggetti" style="rounded=0;whiteSpace=wrap;html=1;" parent="1" vertex="1">
          <mxGeometry x="360" y="400" width="120" height="60" as="geometry" />
        </mxCell>
        <mxCell id="b3RHVqqAT-xLDUqazq1x-11" style="edgeStyle=orthogonalEdgeStyle;rounded=0;orthogonalLoop=1;jettySize=auto;html=1;entryX=1;entryY=0.75;entryDx=0;entryDy=0;" edge="1" parent="1" source="qwlqoothlWGYay0OzHZp-51" target="qwlqoothlWGYay0OzHZp-3">
          <mxGeometry relative="1" as="geometry">
            <Array as="points">
              <mxPoint x="-10" y="-65" />
            </Array>
          </mxGeometry>
        </mxCell>
        <mxCell id="qwlqoothlWGYay0OzHZp-51" value="Ruolo" style="rounded=0;whiteSpace=wrap;html=1;" parent="1" vertex="1">
          <mxGeometry x="-50" y="140" width="120" height="60" as="geometry" />
        </mxCell>
        <mxCell id="qwlqoothlWGYay0OzHZp-52" style="edgeStyle=orthogonalEdgeStyle;rounded=0;orthogonalLoop=1;jettySize=auto;html=1;exitX=0.5;exitY=1;exitDx=0;exitDy=0;" parent="1" source="qwlqoothlWGYay0OzHZp-51" target="qwlqoothlWGYay0OzHZp-51" edge="1">
          <mxGeometry relative="1" as="geometry" />
        </mxCell>
        <mxCell id="b3RHVqqAT-xLDUqazq1x-12" style="edgeStyle=orthogonalEdgeStyle;rounded=0;orthogonalLoop=1;jettySize=auto;html=1;entryX=0.408;entryY=-0.014;entryDx=0;entryDy=0;entryPerimeter=0;" edge="1" parent="1" source="qwlqoothlWGYay0OzHZp-3" target="qwlqoothlWGYay0OzHZp-4">
          <mxGeometry relative="1" as="geometry">
            <Array as="points">
              <mxPoint x="-181" />
              <mxPoint x="-181" />
            </Array>
          </mxGeometry>
        </mxCell>
      </root>
    </mxGraphModel>
  </diagram>
</mxfile>
